<?xml version="1.0" standalone="no"?>
<!DOCTYPE svg PUBLIC "-//W3C//DTD SVG 20010904//EN"
 "http://www.w3.org/TR/2001/REC-SVG-20010904/DTD/svg10.dtd">
<svg version="1.0" xmlns="http://www.w3.org/2000/svg"
 width="192.000000pt" height="192.000000pt" viewBox="0 0 192.000000 192.000000"
 preserveAspectRatio="xMidYMid meet">
<metadata>
Created by potrace 1.16, written by Peter Selinger 2001-2019
</metadata>
<g transform="translate(0.000000,192.000000) scale(0.100000,-0.100000)"
fill="#000000" stroke="none">
<path d="M758 1861 c-173 -38 -318 -115 -450 -240 -189 -179 -286 -393 -296
-657 -4 -100 0 -140 17 -223 64 -297 245 -530 515 -661 149 -72 190 -80 421
-80 193 0 198 0 291 31 354 118 604 429 646 804 20 178 -9 338 -91 510 -121
254 -341 433 -626 511 -95 26 -319 28 -427 5z m324 -526 c183 -39 340 -159
422 -323 l27 -53 -36 -68 c-63 -119 -192 -232 -320 -280 -289 -108 -622 22
-759 297 l-26 52 26 53 c100 199 312 332 536 336 31 1 90 -6 130 -14z"/>
<path d="M907 1209 c-57 -13 -89 -33 -134 -82 -91 -98 -90 -236 1 -335 105
-115 267 -115 372 0 92 99 92 237 0 336 -63 70 -157 101 -239 81z m92 -99 c80
-23 132 -112 111 -189 -13 -48 -74 -106 -121 -115 -106 -20 -208 88 -180 192
16 59 85 116 146 121 6 1 26 -3 44 -9z"/>
</g>
</svg>
